<?xml version="1.0" encoding="UTF-8" standalone="no"?>
<!DOCTYPE svg PUBLIC "-//W3C//DTD SVG 1.1//EN" "http://www.w3.org/Graphics/SVG/1.1/DTD/svg11.dtd">
<svg width="100%" height="100%" viewBox="0 0 1301 641" version="1.1" xmlns="http://www.w3.org/2000/svg" xmlns:xlink="http://www.w3.org/1999/xlink" xml:space="preserve" xmlns:serif="http://www.serif.com/" style="fill-rule:evenodd;clip-rule:evenodd;stroke-linejoin:round;stroke-miterlimit:1.41421;">
    <g transform="matrix(1,0,0,1,-1060.6,-161.769)">
        <path d="M1060.61,165.769L1060.81,342.569L1110.4,342.569L1110.4,323.969L1088.2,323.969L1088.2,184.369L1110.4,184.369L1110.4,165.769L1060.61,165.769Z" style="fill:rgb(37,36,34);fill-rule:nonzero;"/>
        <path d="M1148.85,243.884C1151.4,243.884 1153.34,245.98 1154.69,250.173C1157.31,258.109 1159.18,262.077 1160.31,262.077C1161.2,262.077 1162.1,261.404 1163,260.056C1181.34,230.557 1198.38,206.711 1214.1,188.518C1218.14,183.801 1224.58,181.443 1233.42,181.443C1235.51,181.443 1236.92,181.63 1237.63,182.004C1238.34,182.379 1238.69,182.865 1238.69,183.464C1238.69,184.438 1237.61,186.234 1235.44,188.855C1210.13,219.252 1186.7,251.371 1165.13,285.212C1163.64,287.608 1160.57,288.806 1155.92,288.806C1151.21,288.806 1148.4,288.581 1147.5,288.132C1145.26,287.159 1142.64,282.143 1139.64,273.083C1136.27,263.051 1134.59,256.762 1134.59,254.216C1134.59,251.521 1136.87,248.9 1141.44,246.355C1144.21,244.708 1146.68,243.884 1148.85,243.884Z" style="fill:rgb(30,168,150);fill-rule:nonzero;"/>
        <path d="M1307.88,165.769L1258.28,165.769L1258.28,184.369L1280.48,184.369L1280.48,323.969L1258.28,323.969L1258.28,342.569L1307.88,342.569L1307.88,165.769Z" style="fill:rgb(37,36,34);fill-rule:nonzero;"/>
        <path d="M1518.28,165.769L1485.28,165.769L1461.08,252.369L1436.28,165.769L1412.08,165.769L1387.88,252.369L1363.08,165.769L1330.08,165.769L1373.28,310.369L1398.88,310.369L1424.08,223.769L1449.28,310.369L1475.48,310.369L1518.28,165.769Z" style="fill:rgb(37,36,34);fill-rule:nonzero;"/>
        <path d="M1567.48,312.369C1599.08,312.369 1618.88,290.169 1618.88,259.369C1618.88,227.969 1599.48,204.969 1567.68,204.969C1537.28,204.969 1516.28,226.969 1516.28,259.369C1516.28,290.369 1535.88,312.369 1567.48,312.369ZM1567.68,287.369C1553.28,287.369 1549.48,271.769 1549.48,258.169C1549.48,244.369 1553.28,229.569 1567.68,229.569C1581.88,229.569 1585.68,244.369 1585.68,258.169C1585.68,271.769 1581.88,287.369 1567.68,287.369Z" style="fill:rgb(37,36,34);fill-rule:nonzero;"/>
        <path d="M1636.68,310.369L1670.68,310.369L1670.68,257.169C1670.68,245.569 1676.68,234.569 1705.28,237.169L1705.08,204.969C1685.68,204.969 1674.48,217.969 1669.48,233.569L1669.48,206.969L1636.68,206.969L1636.68,310.369Z" style="fill:rgb(37,36,34);fill-rule:nonzero;"/>
        <path d="M1757.88,312.369C1776.48,312.369 1785.88,301.969 1789.88,289.169L1793.88,310.369L1818.28,310.369L1818.28,161.769L1784.28,161.769L1784.28,219.769C1778.48,210.169 1766.88,204.969 1754.48,204.969C1728.28,204.969 1713.88,225.969 1713.88,257.969C1713.88,290.969 1729.48,312.369 1757.88,312.369ZM1765.88,288.169C1755.08,288.169 1746.88,280.169 1746.88,257.769C1746.88,235.769 1755.28,229.369 1765.68,229.369C1777.48,229.369 1784.08,237.569 1784.28,251.769L1784.28,264.569C1784.08,279.769 1776.48,288.169 1765.88,288.169Z" style="fill:rgb(37,36,34);fill-rule:nonzero;"/>
        <path d="M1844.08,310.369L1878.28,310.369L1878.28,259.769L1903.68,259.769C1935.08,259.769 1955.28,242.569 1955.28,213.969C1955.28,182.969 1931.08,165.769 1899.28,165.769L1844.08,165.769L1844.08,310.369ZM1878.08,233.969L1878.08,191.369L1902.48,191.369C1913.88,191.369 1923.68,199.969 1923.68,212.169C1923.68,223.969 1914.88,233.969 1902.68,233.969L1878.08,233.969Z" style="fill:rgb(37,36,34);fill-rule:nonzero;"/>
        <path d="M1973.48,310.369L2007.48,310.369L2007.48,257.169C2007.48,245.569 2013.48,234.569 2042.08,237.169L2041.88,204.969C2022.48,204.969 2011.28,217.969 2006.28,233.569L2006.28,206.969L1973.48,206.969L1973.48,310.369Z" style="fill:rgb(37,36,34);fill-rule:nonzero;"/>
        <path d="M2084.28,266.569L2151.48,266.569L2151.48,257.969C2151.48,227.169 2134.68,204.969 2102.08,204.969C2069.68,204.969 2050.68,229.569 2050.68,259.969C2050.68,291.769 2072.08,312.369 2103.48,312.369C2125.88,312.369 2147.88,298.969 2151.48,276.369L2121.28,276.369C2117.88,285.169 2111.28,288.169 2102.68,288.169C2091.48,288.169 2084.08,280.569 2084.28,266.569ZM2084.08,246.969C2084.08,237.369 2091.28,228.369 2101.88,228.369C2113.88,228.369 2119.88,236.769 2119.88,246.969L2084.08,246.969Z" style="fill:rgb(37,36,34);fill-rule:nonzero;"/>
        <path d="M2209.88,312.369C2235.08,312.369 2255.08,300.769 2255.08,279.169C2255.08,270.169 2250.28,253.769 2225.48,247.769L2210.48,244.769C2199.28,242.769 2194.48,240.369 2194.48,235.769C2194.48,229.769 2201.48,227.769 2209.28,227.769C2217.68,227.769 2224.68,230.969 2226.08,238.169L2254.08,238.169C2254.68,217.569 2236.88,204.969 2210.08,204.969C2181.48,204.969 2164.68,219.169 2164.88,238.569C2165.08,256.369 2177.68,265.369 2196.68,268.969L2213.28,272.169C2222.48,273.769 2226.28,276.369 2226.28,280.969C2226.28,286.769 2219.48,289.569 2209.68,289.569C2204.08,289.569 2193.68,287.369 2190.88,276.769L2161.68,276.769C2165.88,301.969 2188.08,312.369 2209.88,312.369Z" style="fill:rgb(37,36,34);fill-rule:nonzero;"/>
        <path d="M2315.48,312.369C2340.68,312.369 2360.68,300.769 2360.68,279.169C2360.68,270.169 2355.88,253.769 2331.08,247.769L2316.08,244.769C2304.88,242.769 2300.08,240.369 2300.08,235.769C2300.08,229.769 2307.08,227.769 2314.88,227.769C2323.28,227.769 2330.28,230.969 2331.68,238.169L2359.68,238.169C2360.28,217.569 2342.48,204.969 2315.68,204.969C2287.08,204.969 2270.28,219.169 2270.48,238.569C2270.68,256.369 2283.28,265.369 2302.28,268.969L2318.88,272.169C2328.08,273.769 2331.88,276.369 2331.88,280.969C2331.88,286.769 2325.08,289.569 2315.28,289.569C2309.68,289.569 2299.28,287.369 2296.48,276.769L2267.28,276.769C2271.48,301.969 2293.68,312.369 2315.48,312.369Z" style="fill:rgb(37,36,34);fill-rule:nonzero;"/>
        <path d="M1060.61,395.769L1060.81,572.569L1110.4,572.569L1110.4,553.969L1088.2,553.969L1088.2,414.369L1110.4,414.369L1110.4,395.769L1060.61,395.769Z" style="fill:rgb(37,36,34);fill-rule:nonzero;"/>
        <path d="M1148.85,473.884C1151.4,473.884 1153.34,475.98 1154.69,480.173C1157.31,488.109 1159.18,492.077 1160.31,492.077C1161.2,492.077 1162.1,491.404 1163,490.056C1181.34,460.557 1198.38,436.711 1214.1,418.518C1218.14,413.801 1224.58,411.443 1233.42,411.443C1235.51,411.443 1236.92,411.63 1237.63,412.004C1238.34,412.379 1238.69,412.865 1238.69,413.464C1238.69,414.438 1237.61,416.234 1235.44,418.855C1210.13,449.252 1186.7,481.371 1165.13,515.212C1163.64,517.608 1160.57,518.806 1155.92,518.806C1151.21,518.806 1148.4,518.581 1147.5,518.132C1145.26,517.159 1142.64,512.143 1139.64,503.083C1136.27,493.051 1134.59,486.762 1134.59,484.216C1134.59,481.521 1136.87,478.9 1141.44,476.355C1144.21,474.708 1146.68,473.884 1148.85,473.884Z" style="fill:rgb(30,168,150);fill-rule:nonzero;"/>
        <path d="M1307.88,395.769L1258.28,395.769L1258.28,414.369L1280.48,414.369L1280.48,553.969L1258.28,553.969L1258.28,572.569L1307.88,572.569L1307.88,395.769Z" style="fill:rgb(37,36,34);fill-rule:nonzero;"/>
        <path d="M1329.68,425.969L1371.88,425.969L1371.88,540.369L1406.08,540.369L1406.08,425.969L1448.08,425.969L1448.08,395.769L1329.68,395.769L1329.68,425.969Z" style="fill:rgb(37,36,34);fill-rule:nonzero;"/>
        <path d="M1476.28,496.569L1543.48,496.569L1543.48,487.969C1543.48,457.169 1526.68,434.969 1494.08,434.969C1461.68,434.969 1442.68,459.569 1442.68,489.969C1442.68,521.769 1464.08,542.369 1495.48,542.369C1517.88,542.369 1539.88,528.969 1543.48,506.369L1513.28,506.369C1509.88,515.169 1503.28,518.169 1494.68,518.169C1483.48,518.169 1476.08,510.569 1476.28,496.569ZM1476.08,476.969C1476.08,467.369 1483.28,458.369 1493.88,458.369C1505.88,458.369 1511.88,466.769 1511.88,476.969L1476.08,476.969Z" style="fill:rgb(37,36,34);fill-rule:nonzero;"/>
        <path d="M1601.88,542.369C1627.08,542.369 1647.08,530.769 1647.08,509.169C1647.08,500.169 1642.28,483.769 1617.48,477.769L1602.48,474.769C1591.28,472.769 1586.48,470.369 1586.48,465.769C1586.48,459.769 1593.48,457.769 1601.28,457.769C1609.68,457.769 1616.68,460.969 1618.08,468.169L1646.08,468.169C1646.68,447.569 1628.88,434.969 1602.08,434.969C1573.48,434.969 1556.68,449.169 1556.88,468.569C1557.08,486.369 1569.68,495.369 1588.68,498.969L1605.28,502.169C1614.48,503.769 1618.28,506.369 1618.28,510.969C1618.28,516.769 1611.48,519.569 1601.68,519.569C1596.08,519.569 1585.68,517.369 1582.88,506.769L1553.68,506.769C1557.88,531.969 1580.08,542.369 1601.88,542.369Z" style="fill:rgb(37,36,34);fill-rule:nonzero;"/>
        <path d="M1730.88,460.369L1730.88,436.769L1708.08,436.769L1708.08,405.169L1680.48,405.169L1675.28,436.969L1657.28,436.969L1657.28,460.369L1674.08,460.369L1674.08,512.769C1674.08,529.369 1681.88,541.769 1711.68,541.769C1723.08,541.769 1728.28,540.169 1731.08,538.769L1731.08,518.369L1716.08,518.369C1711.28,518.369 1708.28,517.169 1708.28,511.169L1708.08,460.369L1730.88,460.369Z" style="fill:rgb(37,36,34);fill-rule:nonzero;"/>
        <path d="M1060.61,625.769L1060.81,802.569L1110.4,802.569L1110.4,783.969L1088.2,783.969L1088.2,644.369L1110.4,644.369L1110.4,625.769L1060.61,625.769Z" style="fill:rgb(37,36,34);fill-rule:nonzero;"/>
        <path d="M1148.85,703.884C1151.4,703.884 1153.34,705.98 1154.69,710.173C1157.31,718.109 1159.18,722.077 1160.31,722.077C1161.2,722.077 1162.1,721.404 1163,720.056C1181.34,690.557 1198.38,666.711 1214.1,648.518C1218.14,643.801 1224.58,641.443 1233.42,641.443C1235.51,641.443 1236.92,641.63 1237.63,642.004C1238.34,642.379 1238.69,642.865 1238.69,643.464C1238.69,644.438 1237.61,646.234 1235.44,648.855C1210.13,679.252 1186.7,711.371 1165.13,745.212C1163.64,747.608 1160.57,748.806 1155.92,748.806C1151.21,748.806 1148.4,748.581 1147.5,748.132C1145.26,747.159 1142.64,742.143 1139.64,733.083C1136.27,723.051 1134.59,716.762 1134.59,714.216C1134.59,711.521 1136.87,708.9 1141.44,706.355C1144.21,704.708 1146.68,703.884 1148.85,703.884Z" style="fill:rgb(30,168,150);fill-rule:nonzero;"/>
        <path d="M1307.88,625.769L1258.28,625.769L1258.28,644.369L1280.48,644.369L1280.48,783.969L1258.28,783.969L1258.28,802.569L1307.88,802.569L1307.88,625.769Z" style="fill:rgb(37,36,34);fill-rule:nonzero;"/>
        <path d="M1468.68,770.369L1421.08,681.169L1462.68,625.769L1424.08,625.769L1376.88,688.169L1376.88,625.769L1341.48,625.769L1341.48,770.369L1376.88,770.369L1376.88,730.769L1396.48,706.169L1431.88,770.369L1468.68,770.369Z" style="fill:rgb(37,36,34);fill-rule:nonzero;"/>
        <path d="M1519.48,622.969L1485.08,622.969L1485.08,652.369L1519.48,652.369L1519.48,622.969ZM1519.28,666.969L1485.08,666.969L1485.08,770.369L1519.28,770.369L1519.28,666.969Z" style="fill:rgb(37,36,34);fill-rule:nonzero;"/>
        <path d="M1607.88,690.369L1607.88,666.769L1585.08,666.769L1585.08,635.169L1557.48,635.169L1552.28,666.969L1534.28,666.969L1534.28,690.369L1551.08,690.369L1551.08,742.769C1551.08,759.369 1558.88,771.769 1588.68,771.769C1600.08,771.769 1605.28,770.169 1608.08,768.769L1608.08,748.369L1593.08,748.369C1588.28,748.369 1585.28,747.169 1585.28,741.169L1585.08,690.369L1607.88,690.369Z" style="fill:rgb(37,36,34);fill-rule:nonzero;"/>
    </g>
</svg>
